<mxfile host="app.diagrams.net" modified="2024-04-09T02:53:48.951Z" agent="Mozilla/5.0 (Windows NT 10.0; Win64; x64) AppleWebKit/537.36 (KHTML, like Gecko) Chrome/123.0.0.0 Safari/537.36" etag="aBqMPcLSJJEbfaRuHcx3" version="24.2.3" type="github">
  <diagram name="第 1 页" id="ji11t7zjMDZuTKzRz6_U">
    <mxGraphModel dx="2022" dy="650" grid="1" gridSize="10" guides="1" tooltips="1" connect="1" arrows="1" fold="1" page="1" pageScale="1" pageWidth="827" pageHeight="1169" math="0" shadow="0">
      <root>
        <mxCell id="0" />
        <mxCell id="1" parent="0" />
        <mxCell id="Uosc3sd0xL7aGzGoplJn-5" value="" style="rounded=0;whiteSpace=wrap;html=1;" vertex="1" parent="1">
          <mxGeometry x="80" y="80" width="600" height="40" as="geometry" />
        </mxCell>
        <mxCell id="Uosc3sd0xL7aGzGoplJn-6" value="用户（业务/开发人员）" style="rounded=0;whiteSpace=wrap;html=1;" vertex="1" parent="1">
          <mxGeometry x="80" y="80" width="110" height="40" as="geometry" />
        </mxCell>
        <mxCell id="Uosc3sd0xL7aGzGoplJn-7" value="低代码产品开发&lt;div&gt;人员&lt;/div&gt;" style="rounded=0;whiteSpace=wrap;html=1;" vertex="1" parent="1">
          <mxGeometry x="190" y="80" width="110" height="40" as="geometry" />
        </mxCell>
        <mxCell id="Uosc3sd0xL7aGzGoplJn-8" value="" style="rounded=0;whiteSpace=wrap;html=1;" vertex="1" parent="1">
          <mxGeometry x="80" y="120" width="110" height="400" as="geometry" />
        </mxCell>
        <mxCell id="Uosc3sd0xL7aGzGoplJn-10" value="" style="rounded=0;whiteSpace=wrap;html=1;" vertex="1" parent="1">
          <mxGeometry x="190" y="120" width="110" height="400" as="geometry" />
        </mxCell>
        <mxCell id="Uosc3sd0xL7aGzGoplJn-17" value="项目团队" style="rounded=0;whiteSpace=wrap;html=1;" vertex="1" parent="1">
          <mxGeometry x="-30" y="80" width="110" height="40" as="geometry" />
        </mxCell>
        <mxCell id="Uosc3sd0xL7aGzGoplJn-18" value="" style="rounded=0;whiteSpace=wrap;html=1;" vertex="1" parent="1">
          <mxGeometry x="-30" y="120" width="110" height="400" as="geometry" />
        </mxCell>
        <mxCell id="Uosc3sd0xL7aGzGoplJn-19" value="开始" style="rounded=1;whiteSpace=wrap;html=1;" vertex="1" parent="1">
          <mxGeometry x="-10" y="130" width="70" height="30" as="geometry" />
        </mxCell>
        <mxCell id="Uosc3sd0xL7aGzGoplJn-20" value="低代码业务" style="rhombus;whiteSpace=wrap;html=1;" vertex="1" parent="1">
          <mxGeometry x="-15" y="230" width="80" height="50" as="geometry" />
        </mxCell>
        <mxCell id="Uosc3sd0xL7aGzGoplJn-21" value="需求分析" style="rounded=0;whiteSpace=wrap;html=1;" vertex="1" parent="1">
          <mxGeometry x="-20" y="180" width="90" height="30" as="geometry" />
        </mxCell>
        <mxCell id="Uosc3sd0xL7aGzGoplJn-22" value="结束" style="rounded=1;whiteSpace=wrap;html=1;" vertex="1" parent="1">
          <mxGeometry x="-5" y="480" width="70" height="30" as="geometry" />
        </mxCell>
        <mxCell id="Uosc3sd0xL7aGzGoplJn-23" value="项目测试" style="rounded=0;whiteSpace=wrap;html=1;" vertex="1" parent="1">
          <mxGeometry x="-20" y="370" width="90" height="30" as="geometry" />
        </mxCell>
        <mxCell id="Uosc3sd0xL7aGzGoplJn-25" value="源码编程" style="rounded=0;whiteSpace=wrap;html=1;" vertex="1" parent="1">
          <mxGeometry x="-20" y="310" width="90" height="30" as="geometry" />
        </mxCell>
        <mxCell id="Uosc3sd0xL7aGzGoplJn-26" value="项目交付" style="rounded=0;whiteSpace=wrap;html=1;" vertex="1" parent="1">
          <mxGeometry x="-20" y="420" width="90" height="30" as="geometry" />
        </mxCell>
        <mxCell id="Uosc3sd0xL7aGzGoplJn-27" value="" style="rounded=0;whiteSpace=wrap;html=1;" vertex="1" parent="1">
          <mxGeometry x="90" y="240" width="90" height="210" as="geometry" />
        </mxCell>
        <mxCell id="Uosc3sd0xL7aGzGoplJn-28" value="DSL（Schema）" style="rounded=0;whiteSpace=wrap;html=1;" vertex="1" parent="1">
          <mxGeometry x="90" y="480" width="90" height="30" as="geometry" />
        </mxCell>
        <mxCell id="Uosc3sd0xL7aGzGoplJn-29" value="低代码编程" style="text;html=1;align=center;verticalAlign=middle;whiteSpace=wrap;rounded=0;" vertex="1" parent="1">
          <mxGeometry x="100" y="240" width="70" height="30" as="geometry" />
        </mxCell>
      </root>
    </mxGraphModel>
  </diagram>
</mxfile>
